<svg viewBox="0 0 111 17" fill="none" xmlns="http://www.w3.org/2000/svg">
<path d="M1.71875 16.0352C1.42188 16.0352 1.20703 16 1.07422 15.9297C0.941406 15.8516 0.875 15.7344 0.875 15.5781V1.83203C0.875 1.51953 1.15625 1.36328 1.71875 1.36328H2.15234C2.37109 1.36328 2.54297 1.39453 2.66797 1.45703C2.80078 1.51953 2.91797 1.62109 3.01953 1.76172L9.67578 11.8047L10.2969 12.9766V1.83203C10.2969 1.51953 10.5703 1.36328 11.1172 1.36328H11.2812C11.8281 1.36328 12.1016 1.51953 12.1016 1.83203V15.5781C12.1016 15.7344 12.0352 15.8516 11.9023 15.9297C11.7695 16 11.5625 16.0352 11.2812 16.0352H10.8594C10.6641 16.0352 10.5078 16.0117 10.3906 15.9648C10.2734 15.918 10.1836 15.8438 10.1211 15.7422L3.25391 5.38281L2.69141 4.30469V15.5781C2.69141 15.8828 2.41406 16.0352 1.85938 16.0352H1.71875ZM20.2344 16.1172C18.5078 16.1172 17.2227 15.668 16.3789 14.7695C15.543 13.8633 15.125 12.4805 15.125 10.6211C15.125 8.77734 15.5352 7.37891 16.3555 6.42578C17.1758 5.46484 18.3828 4.98438 19.9766 4.98438C21.3984 4.98438 22.4688 5.44531 23.1875 6.36719C23.9141 7.28906 24.2773 8.64062 24.2773 10.4219C24.2773 10.5 24.2344 10.6094 24.1484 10.75C24.0703 10.8828 23.9727 11.0039 23.8555 11.1133C23.7461 11.2148 23.6523 11.2656 23.5742 11.2656H17C17.0859 12.4297 17.3828 13.2812 17.8906 13.8203C18.4062 14.3516 19.1797 14.6172 20.2109 14.6172C20.7891 14.6172 21.2852 14.5469 21.6992 14.4062C22.1211 14.2656 22.5273 14.0938 22.918 13.8906C22.957 13.875 23.0156 13.8477 23.0938 13.8086C23.1719 13.7695 23.2266 13.75 23.2578 13.75C23.3438 13.75 23.4414 13.8203 23.5508 13.9609C23.668 14.0938 23.7656 14.2461 23.8438 14.418C23.9297 14.582 23.9727 14.7031 23.9727 14.7812C23.9727 14.9531 23.8008 15.1445 23.457 15.3555C23.1133 15.5664 22.6523 15.7461 22.0742 15.8945C21.5039 16.043 20.8906 16.1172 20.2344 16.1172ZM22.4141 9.76562C22.4141 7.57812 21.582 6.48438 19.918 6.48438C18.1289 6.48438 17.1562 7.57812 17 9.76562H22.4141ZM29.5391 16.0352C29.0312 16.0352 28.7539 15.9258 28.707 15.707L25.9648 5.82812C25.8867 5.60938 25.8477 5.47266 25.8477 5.41797C25.8477 5.18359 26.168 5.06641 26.8086 5.06641C27.3086 5.06641 27.5859 5.17578 27.6406 5.39453L29.3984 12.0625C29.4297 12.1719 29.5312 12.6172 29.7031 13.3984C29.7422 13.6094 29.8164 13.957 29.9258 14.4414C30.082 13.4805 30.2539 12.6797 30.4414 12.0391L32.1641 5.41797C32.2188 5.18359 32.4922 5.06641 32.9844 5.06641H33.125C33.6016 5.06641 33.875 5.18359 33.9453 5.41797L35.6797 12.0391C35.8672 12.7266 36.0234 13.4023 36.1484 14.0664C36.1562 14.1133 36.1758 14.2305 36.207 14.418C36.4258 13.2617 36.5859 12.4844 36.6875 12.0859L38.4453 5.39453C38.5 5.17578 38.7812 5.06641 39.2891 5.06641C39.8438 5.06641 40.1211 5.18359 40.1211 5.41797C40.1211 5.50391 40.1016 5.59766 40.0625 5.69922L37.2617 15.707C37.2148 15.9258 36.9414 16.0352 36.4414 16.0352H35.8086C35.3164 16.0352 35.0469 15.9258 35 15.707L33.3242 9.09766C33.2227 8.66797 33.1211 8.12891 33.0195 7.48047C32.918 8.16016 32.8125 8.69531 32.7031 9.08594L31.0039 15.707C30.957 15.9258 30.6758 16.0352 30.1602 16.0352H29.5391ZM44.832 16.1992C44.2461 16.1992 43.6992 16.125 43.1914 15.9766C42.6836 15.8281 42.2773 15.6484 41.9727 15.4375C41.6758 15.2188 41.5273 15.0273 41.5273 14.8633C41.5273 14.7852 41.5664 14.6602 41.6445 14.4883C41.7305 14.3164 41.8281 14.1641 41.9375 14.0312C42.0547 13.8906 42.1602 13.8203 42.2539 13.8203C42.2773 13.8203 42.3477 13.8594 42.4648 13.9375C42.7773 14.1406 43.1055 14.3125 43.4492 14.4531C43.8008 14.5938 44.2188 14.6641 44.7031 14.6641C46.0625 14.6641 46.7422 14.1016 46.7422 12.9766C46.7422 12.6562 46.6758 12.3867 46.543 12.168C46.418 11.9492 46.2031 11.7578 45.8984 11.5938C45.6016 11.4219 45.1914 11.2578 44.668 11.1016C43.918 10.8828 43.332 10.6328 42.9102 10.3516C42.4961 10.0703 42.2031 9.74219 42.0312 9.36719C41.8594 8.98438 41.7734 8.52344 41.7734 7.98438C41.7734 7.40625 41.918 6.88672 42.207 6.42578C42.5039 5.96484 42.9141 5.60547 43.4375 5.34766C43.9688 5.08984 44.5664 4.96094 45.2305 4.96094C45.6914 4.96094 46.1328 5.00391 46.5547 5.08984C46.9844 5.17578 47.3281 5.28906 47.5859 5.42969C47.8516 5.5625 47.9844 5.70312 47.9844 5.85156C47.9844 5.96094 47.9453 6.10938 47.8672 6.29688C47.7969 6.47656 47.707 6.63672 47.5977 6.77734C47.4883 6.91016 47.3906 6.97656 47.3047 6.97656C47.2891 6.97656 47.1914 6.92969 47.0117 6.83594C46.832 6.73438 46.6016 6.64453 46.3203 6.56641C46.0469 6.48047 45.7422 6.4375 45.4062 6.4375C44.875 6.4375 44.4336 6.55859 44.082 6.80078C43.7383 7.03516 43.5664 7.35156 43.5664 7.75C43.5664 8.21875 43.6914 8.59375 43.9414 8.875C44.1914 9.15625 44.6055 9.38672 45.1836 9.56641C46.0742 9.83984 46.7539 10.1133 47.2227 10.3867C47.6914 10.6602 48.0234 10.9961 48.2188 11.3945C48.4219 11.7852 48.5234 12.3008 48.5234 12.9414C48.5234 13.5508 48.3594 14.1055 48.0312 14.6055C47.7031 15.0977 47.2578 15.4883 46.6953 15.7773C46.1328 16.0586 45.5117 16.1992 44.832 16.1992ZM55.0625 16.0352C54.7734 16.0352 54.5625 16 54.4297 15.9297C54.2969 15.8516 54.2305 15.7344 54.2305 15.5781V3.00391H50.2227C50.0742 3.00391 49.9688 2.95312 49.9062 2.85156C49.8438 2.75 49.8125 2.59375 49.8125 2.38281V2.04297C49.8125 1.82422 49.8438 1.66797 49.9062 1.57422C49.9688 1.47266 50.0742 1.42188 50.2227 1.42188H59.9961C60.1445 1.42188 60.25 1.47266 60.3125 1.57422C60.375 1.66797 60.4062 1.82422 60.4062 2.04297V2.38281C60.4062 2.59375 60.375 2.75 60.3125 2.85156C60.25 2.95312 60.1445 3.00391 59.9961 3.00391H56.0703V15.5781C56.0703 15.8828 55.7891 16.0352 55.2266 16.0352H55.0625ZM63.5469 16.0352C63.25 16.0352 63.0352 16 62.9023 15.9297C62.7695 15.8516 62.7031 15.7344 62.7031 15.5781V8.26562C62.7031 7.35938 62.6602 6.70703 62.5742 6.30859C62.4883 5.90234 62.4453 5.67969 62.4453 5.64062C62.4453 5.46875 62.5742 5.34766 62.832 5.27734C63.0977 5.19922 63.3477 5.16016 63.582 5.16016C63.7695 5.16016 63.9102 5.26172 64.0039 5.46484C64.0977 5.66016 64.1797 5.9375 64.25 6.29688L64.3086 6.54297C65.0508 5.50391 65.8555 4.98438 66.7227 4.98438C67.1211 4.98438 67.4219 5.05859 67.625 5.20703C67.8281 5.34766 67.9297 5.53906 67.9297 5.78125C67.9297 6.01562 67.8867 6.26562 67.8008 6.53125C67.7227 6.78906 67.6289 6.91797 67.5195 6.91797C67.4648 6.91797 67.3672 6.89453 67.2266 6.84766C67.1016 6.79297 66.9766 6.75391 66.8516 6.73047C66.7266 6.69922 66.5664 6.68359 66.3711 6.68359C66.0508 6.68359 65.7461 6.77734 65.457 6.96484C65.1758 7.15234 64.9375 7.35938 64.7422 7.58594C64.5469 7.8125 64.4492 7.9375 64.4492 7.96094V15.5781C64.4492 15.7344 64.3828 15.8516 64.25 15.9297C64.1172 16 63.9102 16.0352 63.6289 16.0352H63.5469ZM74.7031 16.1172C72.9766 16.1172 71.6914 15.668 70.8477 14.7695C70.0117 13.8633 69.5938 12.4805 69.5938 10.6211C69.5938 8.77734 70.0039 7.37891 70.8242 6.42578C71.6445 5.46484 72.8516 4.98438 74.4453 4.98438C75.8672 4.98438 76.9375 5.44531 77.6562 6.36719C78.3828 7.28906 78.7461 8.64062 78.7461 10.4219C78.7461 10.5 78.7031 10.6094 78.6172 10.75C78.5391 10.8828 78.4414 11.0039 78.3242 11.1133C78.2148 11.2148 78.1211 11.2656 78.043 11.2656H71.4688C71.5547 12.4297 71.8516 13.2812 72.3594 13.8203C72.875 14.3516 73.6484 14.6172 74.6797 14.6172C75.2578 14.6172 75.7539 14.5469 76.168 14.4062C76.5898 14.2656 76.9961 14.0938 77.3867 13.8906C77.4258 13.875 77.4844 13.8477 77.5625 13.8086C77.6406 13.7695 77.6953 13.75 77.7266 13.75C77.8125 13.75 77.9102 13.8203 78.0195 13.9609C78.1367 14.0938 78.2344 14.2461 78.3125 14.418C78.3984 14.582 78.4414 14.7031 78.4414 14.7812C78.4414 14.9531 78.2695 15.1445 77.9258 15.3555C77.582 15.5664 77.1211 15.7461 76.543 15.8945C75.9727 16.043 75.3594 16.1172 74.7031 16.1172ZM76.8828 9.76562C76.8828 7.57812 76.0508 6.48438 74.3867 6.48438C72.5977 6.48438 71.625 7.57812 71.4688 9.76562H76.8828ZM82.332 16.0352C82.0352 16.0352 81.8203 16 81.6875 15.9297C81.5547 15.8516 81.4883 15.7344 81.4883 15.5781V8.26562C81.4883 7.35938 81.4453 6.70703 81.3594 6.30859C81.2734 5.90234 81.2305 5.67969 81.2305 5.64062C81.2305 5.46875 81.3594 5.34766 81.6172 5.27734C81.8828 5.19922 82.1328 5.16016 82.3672 5.16016C82.5625 5.16016 82.707 5.26562 82.8008 5.47656C82.8945 5.6875 82.9609 5.90234 83 6.12109C83.0469 6.33984 83.0781 6.48047 83.0938 6.54297C83.5312 6.05078 84.0352 5.66797 84.6055 5.39453C85.1836 5.12109 85.7656 4.98438 86.3516 4.98438C87.4141 4.98438 88.2422 5.28516 88.8359 5.88672C89.4375 6.48047 89.7383 7.30078 89.7383 8.34766V15.5781C89.7383 15.7344 89.6719 15.8516 89.5391 15.9297C89.4062 16 89.1953 16.0352 88.9062 16.0352H88.8125C88.5312 16.0352 88.3242 16 88.1914 15.9297C88.0586 15.8516 87.9922 15.7344 87.9922 15.5781V8.52344C87.9922 7.88281 87.8047 7.38672 87.4297 7.03516C87.0625 6.67578 86.543 6.49609 85.8711 6.49609C85.4023 6.49609 84.9297 6.62891 84.4531 6.89453C83.9844 7.15234 83.5781 7.50781 83.2344 7.96094V15.5781C83.2344 15.7344 83.168 15.8516 83.0352 15.9297C82.9023 16 82.6953 16.0352 82.4141 16.0352H82.332ZM96.418 16.1172C95.6055 16.1172 94.8945 15.8828 94.2852 15.4141C93.6758 14.9375 93.2031 14.2773 92.8672 13.4336C92.5391 12.5898 92.375 11.6328 92.375 10.5625C92.375 9.38281 92.5508 8.375 92.9023 7.53906C93.2617 6.69531 93.7617 6.05859 94.4023 5.62891C95.043 5.19922 95.7812 4.98438 96.6172 4.98438C97.2188 4.98438 97.75 5.07422 98.2109 5.25391C98.6797 5.43359 99.1406 5.69531 99.5938 6.03906V0.789062C99.5938 0.484375 99.8672 0.332031 100.414 0.332031H100.508C101.062 0.332031 101.34 0.484375 101.34 0.789062V12.918C101.34 13.8242 101.383 14.4805 101.469 14.8867C101.555 15.2852 101.598 15.5039 101.598 15.543C101.598 15.7148 101.465 15.8398 101.199 15.918C100.941 15.9883 100.699 16.0234 100.473 16.0234C100.316 16.0234 100.191 15.9492 100.098 15.8008C100.004 15.6523 99.9375 15.5039 99.8984 15.3555C99.8672 15.1992 99.8125 14.9336 99.7344 14.5586C98.7422 15.5977 97.6367 16.1172 96.418 16.1172ZM96.7812 14.6055C97.2422 14.6055 97.7188 14.4805 98.2109 14.2305C98.7109 13.9805 99.1719 13.625 99.5938 13.1641V7.45703C98.8438 6.83203 97.9883 6.51953 97.0273 6.51953C96.0977 6.54297 95.3945 6.88281 94.918 7.53906C94.4492 8.19531 94.2148 9.14844 94.2148 10.3984C94.2148 11.7422 94.4336 12.7812 94.8711 13.5156C95.3164 14.2422 95.9531 14.6055 96.7812 14.6055ZM107.129 16.1992C106.543 16.1992 105.996 16.125 105.488 15.9766C104.98 15.8281 104.574 15.6484 104.27 15.4375C103.973 15.2188 103.824 15.0273 103.824 14.8633C103.824 14.7852 103.863 14.6602 103.941 14.4883C104.027 14.3164 104.125 14.1641 104.234 14.0312C104.352 13.8906 104.457 13.8203 104.551 13.8203C104.574 13.8203 104.645 13.8594 104.762 13.9375C105.074 14.1406 105.402 14.3125 105.746 14.4531C106.098 14.5938 106.516 14.6641 107 14.6641C108.359 14.6641 109.039 14.1016 109.039 12.9766C109.039 12.6562 108.973 12.3867 108.84 12.168C108.715 11.9492 108.5 11.7578 108.195 11.5938C107.898 11.4219 107.488 11.2578 106.965 11.1016C106.215 10.8828 105.629 10.6328 105.207 10.3516C104.793 10.0703 104.5 9.74219 104.328 9.36719C104.156 8.98438 104.07 8.52344 104.07 7.98438C104.07 7.40625 104.215 6.88672 104.504 6.42578C104.801 5.96484 105.211 5.60547 105.734 5.34766C106.266 5.08984 106.863 4.96094 107.527 4.96094C107.988 4.96094 108.43 5.00391 108.852 5.08984C109.281 5.17578 109.625 5.28906 109.883 5.42969C110.148 5.5625 110.281 5.70312 110.281 5.85156C110.281 5.96094 110.242 6.10938 110.164 6.29688C110.094 6.47656 110.004 6.63672 109.895 6.77734C109.785 6.91016 109.688 6.97656 109.602 6.97656C109.586 6.97656 109.488 6.92969 109.309 6.83594C109.129 6.73438 108.898 6.64453 108.617 6.56641C108.344 6.48047 108.039 6.4375 107.703 6.4375C107.172 6.4375 106.73 6.55859 106.379 6.80078C106.035 7.03516 105.863 7.35156 105.863 7.75C105.863 8.21875 105.988 8.59375 106.238 8.875C106.488 9.15625 106.902 9.38672 107.48 9.56641C108.371 9.83984 109.051 10.1133 109.52 10.3867C109.988 10.6602 110.32 10.9961 110.516 11.3945C110.719 11.7852 110.82 12.3008 110.82 12.9414C110.82 13.5508 110.656 14.1055 110.328 14.6055C110 15.0977 109.555 15.4883 108.992 15.7773C108.43 16.0586 107.809 16.1992 107.129 16.1992Z" fill="currentColor"/>
</svg>
